<svg width="207" height="49" viewBox="0 0 207 49" fill="none" xmlns="http://www.w3.org/2000/svg">
<path d="M14.8909 26.2363L26.2364 14.8909H37.5818V26.2363H26.2364V37.5818H14.8909V26.2363Z" fill="white"/>
<path d="M24.1091 12.7637L12.7636 24.1091L1.41816 24.1091L1.41816 12.7637L12.7636 12.7637L12.7636 1.41821L24.1091 1.41821L24.1091 12.7637Z" fill="white"/>
<circle cx="32.6181" cy="6.38182" r="6.38182" fill="white"/>
<circle cx="6.38182" cy="32.6182" r="6.38182" fill="white"/>
<path d="M52.88 26.64C51.56 26.64 50.3467 26.3333 49.24 25.72C48.1467 25.1067 47.2733 24.2533 46.62 23.16C45.98 22.0533 45.66 20.8133 45.66 19.44C45.66 18.0667 45.98 16.8333 46.62 15.74C47.2733 14.6467 48.1467 13.7933 49.24 13.18C50.3467 12.5667 51.56 12.26 52.88 12.26C54.2 12.26 55.4067 12.5667 56.5 13.18C57.6067 13.7933 58.4733 14.6467 59.1 15.74C59.74 16.8333 60.06 18.0667 60.06 19.44C60.06 20.8133 59.74 22.0533 59.1 23.16C58.46 24.2533 57.5933 25.1067 56.5 25.72C55.4067 26.3333 54.2 26.64 52.88 26.64ZM52.88 23.52C54 23.52 54.8933 23.1467 55.56 22.4C56.24 21.6533 56.58 20.6667 56.58 19.44C56.58 18.2 56.24 17.2133 55.56 16.48C54.8933 15.7333 54 15.36 52.88 15.36C51.7467 15.36 50.84 15.7267 50.16 16.46C49.4933 17.1933 49.16 18.1867 49.16 19.44C49.16 20.68 49.4933 21.6733 50.16 22.42C50.84 23.1533 51.7467 23.52 52.88 23.52ZM65.3827 16.92C65.716 16.4 66.176 15.98 66.7627 15.66C67.3493 15.34 68.036 15.18 68.8227 15.18C69.7427 15.18 70.576 15.4133 71.3227 15.88C72.0693 16.3467 72.656 17.0133 73.0827 17.88C73.5227 18.7467 73.7427 19.7533 73.7427 20.9C73.7427 22.0467 73.5227 23.06 73.0827 23.94C72.656 24.8067 72.0693 25.48 71.3227 25.96C70.576 26.4267 69.7427 26.66 68.8227 26.66C68.0493 26.66 67.3627 26.5 66.7627 26.18C66.176 25.86 65.716 25.4467 65.3827 24.94V31.82H61.9627V15.34H65.3827V16.92ZM70.2627 20.9C70.2627 20.0467 70.0227 19.38 69.5427 18.9C69.076 18.4067 68.496 18.16 67.8027 18.16C67.1227 18.16 66.5427 18.4067 66.0627 18.9C65.596 19.3933 65.3627 20.0667 65.3627 20.92C65.3627 21.7733 65.596 22.4467 66.0627 22.94C66.5427 23.4333 67.1227 23.68 67.8027 23.68C68.4827 23.68 69.0627 23.4333 69.5427 22.94C70.0227 22.4333 70.2627 21.7533 70.2627 20.9ZM86.0569 20.74C86.0569 21.06 86.0369 21.3933 85.9969 21.74H78.2569C78.3102 22.4333 78.5302 22.9667 78.9169 23.34C79.3169 23.7 79.8035 23.88 80.3769 23.88C81.2302 23.88 81.8235 23.52 82.1569 22.8H85.7969C85.6102 23.5333 85.2702 24.1933 84.7769 24.78C84.2969 25.3667 83.6902 25.8267 82.9569 26.16C82.2235 26.4933 81.4035 26.66 80.4969 26.66C79.4035 26.66 78.4302 26.4267 77.5769 25.96C76.7235 25.4933 76.0569 24.8267 75.5769 23.96C75.0969 23.0933 74.8569 22.08 74.8569 20.92C74.8569 19.76 75.0902 18.7467 75.5569 17.88C76.0369 17.0133 76.7035 16.3467 77.5569 15.88C78.4102 15.4133 79.3902 15.18 80.4969 15.18C81.5769 15.18 82.5369 15.4067 83.3769 15.86C84.2169 16.3133 84.8702 16.96 85.3369 17.8C85.8169 18.64 86.0569 19.62 86.0569 20.74ZM82.5569 19.84C82.5569 19.2533 82.3569 18.7867 81.9569 18.44C81.5569 18.0933 81.0569 17.92 80.4569 17.92C79.8835 17.92 79.3969 18.0867 78.9969 18.42C78.6102 18.7533 78.3702 19.2267 78.2769 19.84H82.5569ZM94.6611 15.22C95.9678 15.22 97.0078 15.6467 97.7811 16.5C98.5678 17.34 98.9611 18.5 98.9611 19.98V26.5H95.5611V20.44C95.5611 19.6933 95.3678 19.1133 94.9811 18.7C94.5944 18.2867 94.0744 18.08 93.4211 18.08C92.7678 18.08 92.2478 18.2867 91.8611 18.7C91.4744 19.1133 91.2811 19.6933 91.2811 20.44V26.5H87.8611V15.34H91.2811V16.82C91.6278 16.3267 92.0944 15.94 92.6811 15.66C93.2678 15.3667 93.9278 15.22 94.6611 15.22ZM110.836 12.46C112.316 12.46 113.609 12.7533 114.716 13.34C115.823 13.9267 116.676 14.7533 117.276 15.82C117.889 16.8733 118.196 18.0933 118.196 19.48C118.196 20.8533 117.889 22.0733 117.276 23.14C116.676 24.2067 115.816 25.0333 114.696 25.62C113.589 26.2067 112.303 26.5 110.836 26.5H105.576V12.46H110.836ZM110.616 23.54C111.909 23.54 112.916 23.1867 113.636 22.48C114.356 21.7733 114.716 20.7733 114.716 19.48C114.716 18.1867 114.356 17.18 113.636 16.46C112.916 15.74 111.909 15.38 110.616 15.38H108.996V23.54H110.616ZM130.627 20.74C130.627 21.06 130.607 21.3933 130.567 21.74H122.827C122.881 22.4333 123.101 22.9667 123.487 23.34C123.887 23.7 124.374 23.88 124.947 23.88C125.801 23.88 126.394 23.52 126.727 22.8H130.367C130.181 23.5333 129.841 24.1933 129.347 24.78C128.867 25.3667 128.261 25.8267 127.527 26.16C126.794 26.4933 125.974 26.66 125.067 26.66C123.974 26.66 123.001 26.4267 122.147 25.96C121.294 25.4933 120.627 24.8267 120.147 23.96C119.667 23.0933 119.427 22.08 119.427 20.92C119.427 19.76 119.661 18.7467 120.127 17.88C120.607 17.0133 121.274 16.3467 122.127 15.88C122.981 15.4133 123.961 15.18 125.067 15.18C126.147 15.18 127.107 15.4067 127.947 15.86C128.787 16.3133 129.441 16.96 129.907 17.8C130.387 18.64 130.627 19.62 130.627 20.74ZM127.127 19.84C127.127 19.2533 126.927 18.7867 126.527 18.44C126.127 18.0933 125.627 17.92 125.027 17.92C124.454 17.92 123.967 18.0867 123.567 18.42C123.181 18.7533 122.941 19.2267 122.847 19.84H127.127ZM136.971 26.66C135.998 26.66 135.131 26.4933 134.371 26.16C133.611 25.8267 133.011 25.3733 132.571 24.8C132.131 24.2133 131.885 23.56 131.831 22.84H135.211C135.251 23.2267 135.431 23.54 135.751 23.78C136.071 24.02 136.465 24.14 136.931 24.14C137.358 24.14 137.685 24.06 137.911 23.9C138.151 23.7267 138.271 23.5067 138.271 23.24C138.271 22.92 138.105 22.6867 137.771 22.54C137.438 22.38 136.898 22.2067 136.151 22.02C135.351 21.8333 134.685 21.64 134.151 21.44C133.618 21.2267 133.158 20.9 132.771 20.46C132.385 20.0067 132.191 19.4 132.191 18.64C132.191 18 132.365 17.42 132.711 16.9C133.071 16.3667 133.591 15.9467 134.271 15.64C134.965 15.3333 135.785 15.18 136.731 15.18C138.131 15.18 139.231 15.5267 140.031 16.22C140.845 16.9133 141.311 17.8333 141.431 18.98H138.271C138.218 18.5933 138.045 18.2867 137.751 18.06C137.471 17.8333 137.098 17.72 136.631 17.72C136.231 17.72 135.925 17.8 135.711 17.96C135.498 18.1067 135.391 18.3133 135.391 18.58C135.391 18.9 135.558 19.14 135.891 19.3C136.238 19.46 136.771 19.62 137.491 19.78C138.318 19.9933 138.991 20.2067 139.511 20.42C140.031 20.62 140.485 20.9533 140.871 21.42C141.271 21.8733 141.478 22.4867 141.491 23.26C141.491 23.9133 141.305 24.5 140.931 25.02C140.571 25.5267 140.045 25.9267 139.351 26.22C138.671 26.5133 137.878 26.66 136.971 26.66ZM145.304 14.18C144.704 14.18 144.21 14.0067 143.824 13.66C143.45 13.3 143.264 12.86 143.264 12.34C143.264 11.8067 143.45 11.3667 143.824 11.02C144.21 10.66 144.704 10.48 145.304 10.48C145.89 10.48 146.37 10.66 146.744 11.02C147.13 11.3667 147.324 11.8067 147.324 12.34C147.324 12.86 147.13 13.3 146.744 13.66C146.37 14.0067 145.89 14.18 145.304 14.18ZM147.004 15.34V26.5H143.584V15.34H147.004ZM153.722 15.18C154.509 15.18 155.196 15.34 155.782 15.66C156.382 15.98 156.842 16.4 157.162 16.92V15.34H160.582V26.48C160.582 27.5067 160.376 28.4333 159.962 29.26C159.562 30.1 158.942 30.7667 158.102 31.26C157.276 31.7533 156.242 32 155.002 32C153.349 32 152.009 31.6067 150.982 30.82C149.956 30.0467 149.369 28.9933 149.222 27.66H152.602C152.709 28.0867 152.962 28.42 153.362 28.66C153.762 28.9133 154.256 29.04 154.842 29.04C155.549 29.04 156.109 28.8333 156.522 28.42C156.949 28.02 157.162 27.3733 157.162 26.48V24.9C156.829 25.42 156.369 25.8467 155.782 26.18C155.196 26.5 154.509 26.66 153.722 26.66C152.802 26.66 151.969 26.4267 151.222 25.96C150.476 25.48 149.882 24.8067 149.442 23.94C149.016 23.06 148.802 22.0467 148.802 20.9C148.802 19.7533 149.016 18.7467 149.442 17.88C149.882 17.0133 150.476 16.3467 151.222 15.88C151.969 15.4133 152.802 15.18 153.722 15.18ZM157.162 20.92C157.162 20.0667 156.922 19.3933 156.442 18.9C155.976 18.4067 155.402 18.16 154.722 18.16C154.042 18.16 153.462 18.4067 152.982 18.9C152.516 19.38 152.282 20.0467 152.282 20.9C152.282 21.7533 152.516 22.4333 152.982 22.94C153.462 23.4333 154.042 23.68 154.722 23.68C155.402 23.68 155.976 23.4333 156.442 22.94C156.922 22.4467 157.162 21.7733 157.162 20.92ZM169.856 15.22C171.163 15.22 172.203 15.6467 172.976 16.5C173.763 17.34 174.156 18.5 174.156 19.98V26.5H170.756V20.44C170.756 19.6933 170.563 19.1133 170.176 18.7C169.79 18.2867 169.27 18.08 168.616 18.08C167.963 18.08 167.443 18.2867 167.056 18.7C166.67 19.1133 166.476 19.6933 166.476 20.44V26.5H163.056V15.34H166.476V16.82C166.823 16.3267 167.29 15.94 167.876 15.66C168.463 15.3667 169.123 15.22 169.856 15.22ZM187.053 20.74C187.053 21.06 187.033 21.3933 186.993 21.74H179.253C179.306 22.4333 179.526 22.9667 179.913 23.34C180.313 23.7 180.8 23.88 181.373 23.88C182.226 23.88 182.82 23.52 183.153 22.8H186.793C186.606 23.5333 186.266 24.1933 185.773 24.78C185.293 25.3667 184.686 25.8267 183.953 26.16C183.22 26.4933 182.4 26.66 181.493 26.66C180.4 26.66 179.426 26.4267 178.573 25.96C177.72 25.4933 177.053 24.8267 176.573 23.96C176.093 23.0933 175.853 22.08 175.853 20.92C175.853 19.76 176.086 18.7467 176.553 17.88C177.033 17.0133 177.7 16.3467 178.553 15.88C179.406 15.4133 180.386 15.18 181.493 15.18C182.573 15.18 183.533 15.4067 184.373 15.86C185.213 16.3133 185.866 16.96 186.333 17.8C186.813 18.64 187.053 19.62 187.053 20.74ZM183.553 19.84C183.553 19.2533 183.353 18.7867 182.953 18.44C182.553 18.0933 182.053 17.92 181.453 17.92C180.88 17.92 180.393 18.0867 179.993 18.42C179.606 18.7533 179.366 19.2267 179.273 19.84H183.553ZM192.277 17.2C192.677 16.5867 193.177 16.1067 193.777 15.76C194.377 15.4 195.044 15.22 195.777 15.22V18.84H194.837C193.984 18.84 193.344 19.0267 192.917 19.4C192.491 19.76 192.277 20.4 192.277 21.32V26.5H188.857V15.34H192.277V17.2ZM201.952 26.66C200.979 26.66 200.112 26.4933 199.352 26.16C198.592 25.8267 197.992 25.3733 197.552 24.8C197.112 24.2133 196.865 23.56 196.812 22.84H200.192C200.232 23.2267 200.412 23.54 200.732 23.78C201.052 24.02 201.445 24.14 201.912 24.14C202.339 24.14 202.665 24.06 202.892 23.9C203.132 23.7267 203.252 23.5067 203.252 23.24C203.252 22.92 203.085 22.6867 202.752 22.54C202.419 22.38 201.879 22.2067 201.132 22.02C200.332 21.8333 199.665 21.64 199.132 21.44C198.599 21.2267 198.139 20.9 197.752 20.46C197.365 20.0067 197.172 19.4 197.172 18.64C197.172 18 197.345 17.42 197.692 16.9C198.052 16.3667 198.572 15.9467 199.252 15.64C199.945 15.3333 200.765 15.18 201.712 15.18C203.112 15.18 204.212 15.5267 205.012 16.22C205.825 16.9133 206.292 17.8333 206.412 18.98H203.252C203.199 18.5933 203.025 18.2867 202.732 18.06C202.452 17.8333 202.079 17.72 201.612 17.72C201.212 17.72 200.905 17.8 200.692 17.96C200.479 18.1067 200.372 18.3133 200.372 18.58C200.372 18.9 200.539 19.14 200.872 19.3C201.219 19.46 201.752 19.62 202.472 19.78C203.299 19.9933 203.972 20.2067 204.492 20.42C205.012 20.62 205.465 20.9533 205.852 21.42C206.252 21.8733 206.459 22.4867 206.472 23.26C206.472 23.9133 206.285 24.5 205.912 25.02C205.552 25.5267 205.025 25.9267 204.332 26.22C203.652 26.5133 202.859 26.66 201.952 26.66Z" fill="white"/>
</svg>
